<?xml version="1.0" encoding="UTF-8" standalone="no"?>
<!-- Created with Inkscape (http://www.inkscape.org/) -->

<svg
   width="256"
   height="256"
   viewBox="0 0 67.733332 67.733335"
   version="1.1"
   id="svg5"
   inkscape:version="1.1.2 (0a00cf5339, 2022-02-04)"
   sodipodi:docname="labelbuddy-annotations.svg"
   xmlns:inkscape="http://www.inkscape.org/namespaces/inkscape"
   xmlns:sodipodi="http://sodipodi.sourceforge.net/DTD/sodipodi-0.dtd"
   xmlns="http://www.w3.org/2000/svg"
   xmlns:svg="http://www.w3.org/2000/svg">
  <sodipodi:namedview
     id="namedview7"
     pagecolor="#ffffff"
     bordercolor="#666666"
     borderopacity="1.0"
     inkscape:pageshadow="2"
     inkscape:pageopacity="0.0"
     inkscape:pagecheckerboard="0"
     inkscape:document-units="mm"
     showgrid="false"
     units="px"
     width="256px"
     inkscape:zoom="3.2035073"
     inkscape:cx="117.83959"
     inkscape:cy="190.72846"
     inkscape:window-width="1918"
     inkscape:window-height="2133"
     inkscape:window-x="1920"
     inkscape:window-y="0"
     inkscape:window-maximized="1"
     inkscape:current-layer="layer1"
     inkscape:snap-global="false" />
  <defs
     id="defs2">
    <rect
       x="-50.885371"
       y="91.069485"
       width="219.43617"
       height="58.30266"
       id="rect11290" />
    <rect
       x="9.5943961"
       y="18.565191"
       width="213.36272"
       height="31.552075"
       id="rect4170" />
    <rect
       x="-50.885372"
       y="91.069489"
       width="258.97714"
       height="57.180864"
       id="rect11290-9" />
  </defs>
  <g
     inkscape:label="Layer 1"
     inkscape:groupmode="layer"
     id="layer1">
    <rect
       style="fill:#ffdd33;fill-opacity:1;stroke:#414141;stroke-width:0;stroke-linecap:round;stroke-linejoin:round"
       id="rect22435-1-1"
       width="55.679882"
       height="12.707374"
       x="-1.5401033"
       y="15.785824"
       transform="rotate(-9.6079901)" />
    <g
       aria-label="labelbuddy"
       transform="matrix(0.26087196,-0.04416061,0.04416061,0.26087196,12.76314,-10.618324)"
       id="text11288"
       style="font-weight:bold;font-size:37.3333px;line-height:1.25;font-family:Inconsolata;-inkscape-font-specification:'Inconsolata, Bold';font-variant-ligatures:none;letter-spacing:0px;word-spacing:0px;white-space:pre;shape-inside:url(#rect11290)">
      <path
         d="m -48.532768,126.30829 v -3.32267 h 4.890663 v -18.40531 h -4.666663 v -3.32267 h 8.922659 v 21.72798 h 4.853329 v 3.32267 z"
         id="path33029" />
      <path
         d="m -24.826192,126.75629 q -2.874664,0 -4.479996,-1.344 -1.567999,-1.38133 -1.567999,-3.54667 0,-1.38133 0.597333,-2.53866 0.634666,-1.19467 1.866665,-2.05333 1.231999,-0.85867 3.061331,-1.30667 1.829332,-0.48533 4.18133,-0.48533 0.298666,0 0.746666,0 0.447999,0 0.970666,0.0373 0.522666,0 0.970666,0.0747 l 0.111999,2.912 q -0.373333,-0.0373 -0.895999,-0.0373 -0.522666,-0.0373 -1.082666,-0.0373 -0.522666,-0.0373 -0.895999,-0.0373 -1.493332,0 -2.538664,0.224 -1.007999,0.224 -1.642666,0.63466 -0.634666,0.37334 -0.933332,0.93334 -0.298666,0.52266 -0.298666,1.15733 0,0.59733 0.186666,1.008 0.224,0.41066 0.56,0.672 0.373333,0.224 0.858665,0.336 0.485333,0.112 1.045333,0.112 1.119999,0 1.941332,-0.336 0.858666,-0.37334 1.418665,-1.15734 0.597333,-0.784 0.858666,-1.94133 0.298666,-1.19466 0.298666,-2.8 0,-2.16533 -0.447999,-3.32266 -0.448,-1.15733 -1.306666,-1.60533 -0.858666,-0.48533 -2.165331,-0.48533 -1.194666,0 -2.277332,0.41066 -1.045332,0.37334 -2.053331,1.41867 l -2.314665,-2.53867 q 1.455999,-1.38133 3.247997,-1.97866 1.791999,-0.59733 3.583997,-0.59733 1.642666,0 3.061331,0.37333 1.418665,0.37333 2.463998,1.26933 1.082666,0.85867 1.679998,2.38933 0.634667,1.49333 0.634667,3.73333 v 10.00533 h -4.367997 v -1.86667 q -0.485333,0.63467 -1.045332,1.08267 -0.56,0.448 -1.194666,0.70933 -0.634666,0.26133 -1.343999,0.37333 -0.709332,0.14934 -1.493332,0.14934 z"
         id="path33031" />
      <path
         d="m -3.1356141,126.75629 q -0.9333325,0 -1.7919985,-0.26134 -0.8586659,-0.26133 -1.6053319,-0.784 -0.7093328,-0.56 -1.3066656,-1.30666 l -0.7093327,1.904 h -3.2106642 v -25.05065 h 4.2186633 0.373333 v 0.336 q -0.2239998,0.224 -0.2986664,0.48533 -0.037333,0.26134 -0.037333,0.896 v 7.91466 q 0.4106663,-0.52266 0.8959993,-0.97066 0.4853329,-0.448 1.0826657,-0.74667 0.5973328,-0.336 1.231999,-0.48533 0.6719994,-0.14933 1.3439988,-0.14933 1.605332,0 2.87466423,0.55999 1.30666557,0.56 2.20266477,1.68 0.9333326,1.08267 1.4186655,2.72533 0.5226662,1.64267 0.5226662,3.84533 0,2.38934 -0.5973328,4.18133 -0.5599995,1.75467 -1.5679987,2.912 -1.00799913,1.15733 -2.31466468,1.75467 -1.26933222,0.56 -2.72533102,0.56 z M -3.99428,123.47096 q 0.7839993,0 1.493332,-0.29867 0.7093328,-0.336 1.231999,-1.008 0.52266621,-0.672 0.82133262,-1.75466 0.29866641,-1.12 0.29866641,-2.688 0,-1.41867 -0.26133311,-2.53867 -0.26133311,-1.12 -0.74666602,-1.86666 -0.4853329,-0.784 -1.1946657,-1.19467 -0.6719994,-0.41066 -1.5679986,-0.41066 -1.0826658,0 -1.9039984,0.70933 -0.7839993,0.672 -1.1946657,1.97866 -0.4106663,1.30667 -0.4479996,3.136 0,1.41867 0.1866665,2.53867 0.2239998,1.08266 0.6346662,1.86666 0.4479996,0.74667 1.0826657,1.15733 0.6719994,0.37334 1.5679987,0.37334 z"
         id="path33033" />
      <path
         d="m 15.2323,126.71895 q -1.866665,0 -3.471997,-0.59733 -1.567999,-0.59733 -2.7626647,-1.71733 -1.1573323,-1.15733 -1.7919984,-2.83733 -0.6346662,-1.68 -0.6346662,-3.808 0,-2.16533 0.6346662,-3.88266 0.6346661,-1.71733 1.7173318,-2.912 1.1199993,-1.19467 2.6133313,-1.792 1.493332,-0.63466 3.210664,-0.63466 1.530665,0 2.874664,0.52266 1.343999,0.52267 2.351998,1.60533 1.045332,1.04534 1.642665,2.65067 0.597333,1.568 0.597333,3.65866 0,0.37333 -0.03733,0.896 0,0.52267 -0.03733,0.896 H 10.640304 q 0.07467,1.232 0.485333,2.128 0.410666,0.85866 1.082665,1.41866 0.672,0.56 1.493332,0.85867 0.821333,0.26133 1.717332,0.26133 0.784,0 1.493332,-0.14933 0.746666,-0.14933 1.381332,-0.52267 0.672,-0.37333 1.269333,-0.97066 l 2.165331,2.09066 q -0.821332,0.97067 -1.866665,1.64267 -1.007999,0.63466 -2.202665,0.896 -1.157332,0.29866 -2.426664,0.29866 z m -4.51733,-11.12532 h 7.391994 q 0,-0.896 -0.261333,-1.60533 -0.224,-0.70934 -0.672,-1.19467 -0.447999,-0.48533 -1.119999,-0.70933 -0.634666,-0.26133 -1.493332,-0.26133 -0.709332,0 -1.381332,0.224 -0.634666,0.18666 -1.157332,0.672 -0.522666,0.48533 -0.858666,1.19466 -0.336,0.70933 -0.448,1.68 z"
         id="path33035" />
      <path
         d="m 26.133553,126.30829 v -3.32267 h 4.890663 v -18.40531 h -4.666663 v -3.32267 h 8.922659 v 21.72798 h 4.853329 v 3.32267 z"
         id="path33037" />
      <path
         d="m 52.864127,126.75629 q -0.933333,0 -1.791999,-0.26134 -0.858666,-0.26133 -1.605332,-0.784 -0.709333,-0.56 -1.306665,-1.30666 l -0.709333,1.904 h -3.210664 v -25.05065 h 4.218663 0.373333 v 0.336 q -0.224,0.224 -0.298666,0.48533 -0.03733,0.26134 -0.03733,0.896 v 7.91466 q 0.410667,-0.52266 0.895999,-0.97066 0.485333,-0.448 1.082666,-0.74667 0.597333,-0.336 1.231999,-0.48533 0.672,-0.14933 1.343999,-0.14933 1.605332,0 2.874664,0.55999 1.306666,0.56 2.202665,1.68 0.933333,1.08267 1.418665,2.72533 0.522667,1.64267 0.522667,3.84533 0,2.38934 -0.597333,4.18133 -0.56,1.75467 -1.567999,2.912 -1.007999,1.15733 -2.314664,1.75467 -1.269333,0.56 -2.725331,0.56 z m -0.858666,-3.28533 q 0.783999,0 1.493332,-0.29867 0.709332,-0.336 1.231999,-1.008 0.522666,-0.672 0.821332,-1.75466 0.298667,-1.12 0.298667,-2.688 0,-1.41867 -0.261333,-2.53867 -0.261334,-1.12 -0.746667,-1.86666 -0.485332,-0.784 -1.194665,-1.19467 -0.672,-0.41066 -1.567999,-0.41066 -1.082666,0 -1.903998,0.70933 -0.784,0.672 -1.194666,1.97866 -0.410666,1.30667 -0.447999,3.136 0,1.41867 0.186666,2.53867 0.224,1.08266 0.634666,1.86666 0.448,0.74667 1.082666,1.15733 0.671999,0.37334 1.567999,0.37334 z"
         id="path33039" />
      <path
         d="m 69.029376,126.75629 q -1.045333,0 -1.978665,-0.29867 -0.933333,-0.26133 -1.679999,-0.82133 -0.746666,-0.59734 -1.306666,-1.49333 -0.522666,-0.896 -0.821332,-2.128 -0.298667,-1.26933 -0.298667,-2.87467 V 108.9483 h 4.255997 v 10.19199 q 0,1.15734 0.186666,1.97867 0.186667,0.784 0.56,1.30666 0.373333,0.48534 0.858666,0.70934 0.522666,0.224 1.082665,0.224 0.784,0 1.418666,-0.26134 0.671999,-0.29866 1.119999,-0.85866 0.485333,-0.56 0.746666,-1.38134 0.261333,-0.85866 0.261333,-2.01599 v -9.89333 h 4.218663 v 14.59732 q 0,0.82134 0.03733,1.49333 0.07467,0.63467 0.336,1.26934 h -3.84533 q -0.186666,-0.37334 -0.261333,-0.74667 -0.07467,-0.37333 -0.112,-0.74667 0,-0.41066 0,-0.74666 -0.410666,0.63466 -0.933332,1.15733 -0.522667,0.48533 -1.157333,0.82133 -0.597333,0.336 -1.306665,0.52267 -0.672,0.18667 -1.381332,0.18667 z"
         id="path33041" />
      <path
         d="m 88.218622,126.71895 q -1.455999,0 -2.762664,-0.56 -1.269333,-0.56 -2.277332,-1.71733 -1.007999,-1.15733 -1.605332,-2.87466 -0.559999,-1.71733 -0.559999,-4.032 0,-2.24 0.559999,-3.92 0.56,-1.71733 1.530666,-2.83733 1.007999,-1.15733 2.314664,-1.71733 1.306666,-0.56 2.837331,-0.56 0.858666,0 1.642665,0.224 0.821333,0.224 1.455999,0.672 0.672,0.41067 1.082666,1.15733 v -9.29599 h 4.143996 0.373333 v 0.336 q -0.223999,0.224 -0.298666,0.48533 -0.03733,0.26134 -0.03733,0.896 l -0.03733,21.01865 q 0,0.59734 0.07467,1.15733 0.07467,0.56 0.336,1.15734 h -4.143997 q -0.186666,-0.41067 -0.261333,-0.672 -0.07467,-0.26134 -0.112,-0.52267 0,-0.29867 0,-0.70933 -0.447999,0.784 -1.119999,1.30666 -0.671999,0.52267 -1.455999,0.74667 -0.783999,0.26133 -1.679998,0.26133 z m 0.709333,-3.39733 q 0.858666,0 1.493332,-0.336 0.671999,-0.37333 1.082665,-1.08266 0.448,-0.70934 0.634667,-1.792 0.223999,-1.12 0.223999,-2.53867 0,-1.94133 -0.373333,-3.21066 -0.373333,-1.30667 -1.157332,-1.94133 -0.783999,-0.63467 -2.015998,-0.63467 -0.858666,0 -1.567999,0.41067 -0.709333,0.37333 -1.157332,1.12 -0.448,0.74666 -0.709333,1.792 -0.224,1.04533 -0.224,2.35199 0,1.82934 0.485333,3.136 0.522666,1.30667 1.381332,2.016 0.858666,0.70933 1.903999,0.70933 z"
         id="path33043" />
      <path
         d="m 106.8852,126.71895 q -1.456,0 -2.76266,-0.56 -1.26933,-0.56 -2.27733,-1.71733 -1.008,-1.15733 -1.60534,-2.87466 -0.559995,-1.71733 -0.559995,-4.032 0,-2.24 0.559995,-3.92 0.56,-1.71733 1.53067,-2.83733 1.008,-1.15733 2.31466,-1.71733 1.30667,-0.56 2.83734,-0.56 0.85866,0 1.64266,0.224 0.82133,0.224 1.456,0.672 0.672,0.41067 1.08267,1.15733 v -9.29599 h 4.14399 0.37333 v 0.336 q -0.224,0.224 -0.29866,0.48533 -0.0373,0.26134 -0.0373,0.896 l -0.0373,21.01865 q 0,0.59734 0.0747,1.15733 0.0747,0.56 0.336,1.15734 h -4.144 q -0.18666,-0.41067 -0.26133,-0.672 -0.0747,-0.26134 -0.112,-0.52267 0,-0.29867 0,-0.70933 -0.448,0.784 -1.12,1.30666 -0.672,0.52267 -1.456,0.74667 -0.784,0.26133 -1.68,0.26133 z m 0.70933,-3.39733 q 0.85867,0 1.49334,-0.336 0.672,-0.37333 1.08266,-1.08266 0.448,-0.70934 0.63467,-1.792 0.224,-1.12 0.224,-2.53867 0,-1.94133 -0.37333,-3.21066 -0.37334,-1.30667 -1.15734,-1.94133 -0.784,-0.63467 -2.016,-0.63467 -0.85866,0 -1.56799,0.41067 -0.70934,0.37333 -1.15734,1.12 -0.448,0.74666 -0.70933,1.792 -0.224,1.04533 -0.224,2.35199 0,1.82934 0.48533,3.136 0.52267,1.30667 1.38134,2.016 0.85866,0.70933 1.90399,0.70933 z"
         id="path33045" />
      <path
         d="m 121.81845,132.87895 q -1.232,0 -2.24,-0.448 -0.97066,-0.41067 -1.90399,-1.15733 l 1.45599,-2.912 0.14934,-0.336 0.336,0.14933 q 0.112,0.29867 0.26133,0.56 0.18667,0.26133 0.672,0.59733 0.26133,0.14934 0.56,0.224 0.336,0.0747 0.70933,0.0747 0.74667,0 1.26933,-0.41067 0.56,-0.41066 1.008,-1.26933 0.48534,-0.85866 0.93334,-2.20266 l 3.77066,-10.63999 q 0.56,-1.60534 0.93333,-3.09867 0.41067,-1.49333 0.48534,-3.06133 h 3.91999 q -0.14933,1.68 -0.784,3.54667 -0.63466,1.82933 -1.26933,3.54666 l -4.29333,11.79732 q -1.04533,2.76267 -2.53866,3.88267 -1.456,1.15733 -3.43467,1.15733 z m -3.54666,-23.93065 h 4.21866 l 5.11466,13.25332 -2.20266,4.51733 z"
         id="path33047" />
    </g>
    <rect
       style="fill:#a7b6ff;fill-opacity:1;stroke:#414141;stroke-width:0;stroke-linecap:round;stroke-linejoin:round"
       id="rect22435-1"
       width="59.160988"
       height="12.707374"
       x="16.525215"
       y="30.188227"
       transform="rotate(12.949781)" />
    <g
       aria-label="annotations"
       transform="matrix(0.25785414,0.05929232,-0.05929232,0.25785414,29.734671,13.006824)"
       id="text11288-3"
       style="font-weight:bold;font-size:37.3333px;line-height:1.25;font-family:Inconsolata;-inkscape-font-specification:'Inconsolata, Bold';font-variant-ligatures:none;letter-spacing:0px;word-spacing:0px;white-space:pre;shape-inside:url(#rect11290-9)">
      <path
         d="m -43.492772,126.75629 q -2.874664,0 -4.479996,-1.344 -1.567999,-1.38133 -1.567999,-3.54667 0,-1.38133 0.597333,-2.53866 0.634666,-1.19467 1.866665,-2.05333 1.231999,-0.85867 3.061331,-1.30667 1.829332,-0.48533 4.18133,-0.48533 0.298666,0 0.746666,0 0.447999,0 0.970666,0.0373 0.522666,0 0.970665,0.0747 l 0.112,2.912 q -0.373333,-0.0373 -0.895999,-0.0373 -0.522666,-0.0373 -1.082666,-0.0373 -0.522666,-0.0373 -0.895999,-0.0373 -1.493332,0 -2.538664,0.224 -1.008,0.224 -1.642666,0.63466 -0.634666,0.37334 -0.933332,0.93334 -0.298667,0.52266 -0.298667,1.15733 0,0.59733 0.186667,1.008 0.224,0.41066 0.559999,0.672 0.373333,0.224 0.858666,0.336 0.485333,0.112 1.045333,0.112 1.119999,0 1.941331,-0.336 0.858666,-0.37334 1.418666,-1.15734 0.597333,-0.784 0.858666,-1.94133 0.298666,-1.19466 0.298666,-2.8 0,-2.16533 -0.447999,-3.32266 -0.448,-1.15733 -1.306666,-1.60533 -0.858666,-0.48533 -2.165331,-0.48533 -1.194666,0 -2.277332,0.41066 -1.045332,0.37334 -2.053331,1.41867 l -2.314665,-2.53867 q 1.455999,-1.38133 3.247997,-1.97866 1.791999,-0.59733 3.583997,-0.59733 1.642665,0 3.061331,0.37333 1.418665,0.37333 2.463998,1.26933 1.082665,0.85867 1.679998,2.38933 0.634666,1.49333 0.634666,3.73333 v 10.00533 h -4.367996 v -1.86667 q -0.485333,0.63467 -1.045332,1.08267 -0.56,0.448 -1.194666,0.70933 -0.634666,0.26133 -1.343999,0.37333 -0.709333,0.14934 -1.493332,0.14934 z"
         id="path33070" />
      <path
         d="M -30.164854,126.30829 V 108.9483 h 4.218663 v 2.38933 q 0.634666,-0.82133 1.381332,-1.456 0.746666,-0.63466 1.642666,-0.97066 0.933332,-0.37333 1.978665,-0.37333 1.530665,0 2.799997,0.74666 1.269333,0.70933 2.053332,2.31467 0.783999,1.60533 0.783999,4.21866 v 10.49066 h -4.218663 V 115.8923 q 0,-1.456 -0.298666,-2.352 -0.298667,-0.896 -0.896,-1.30667 -0.559999,-0.448 -1.343998,-0.448 -0.709333,0 -1.418666,0.29867 -0.671999,0.26133 -1.231999,0.82133 -0.559999,0.56 -0.895999,1.344 -0.336,0.74667 -0.336,1.71733 v 10.34133 z"
         id="path33072" />
      <path
         d="M -11.498274,126.30829 V 108.9483 h 4.2186634 v 2.38933 q 0.6346662,-0.82133 1.3813322,-1.456 0.746666,-0.63466 1.6426653,-0.97066 0.9333325,-0.37333 1.9786649,-0.37333 1.53066541,0 2.79999766,0.74666 1.26933224,0.70933 2.05333154,2.31467 0.7839994,1.60533 0.7839994,4.21866 v 10.49066 H -0.8582827 V 115.8923 q 0,-1.456 -0.2986664,-2.352 -0.2986664,-0.896 -0.8959992,-1.30667 -0.5599996,-0.448 -1.3439989,-0.448 -0.7093327,0 -1.4186655,0.29867 -0.6719994,0.26133 -1.2319989,0.82133 -0.5599995,0.56 -0.8959993,1.344 -0.3359997,0.74667 -0.3359997,1.71733 v 10.34133 z"
         id="path33074" />
      <path
         d="m 14.410967,126.68162 q -2.314665,0 -4.218663,-1.12 -1.8666651,-1.15733 -2.9493308,-3.21066 -1.0826658,-2.05333 -1.0826658,-4.74133 0,-2.576 1.0826658,-4.62933 1.0826657,-2.05333 2.9493308,-3.248 1.903998,-1.19466 4.218663,-1.19466 2.351998,0 4.218663,1.19466 1.903999,1.19467 2.986664,3.248 1.119999,2.05333 1.119999,4.62933 0,2.688 -1.119999,4.74133 -1.082665,2.05333 -2.986664,3.21066 -1.866665,1.12 -4.218663,1.12 z m 0,-3.36 q 1.231999,0 2.127998,-0.70933 0.895999,-0.74667 1.418666,-2.016 0.559999,-1.30666 0.559999,-2.98666 0,-1.75467 -0.559999,-3.024 -0.522667,-1.26933 -1.418666,-1.94133 -0.895999,-0.70933 -2.127998,-0.70933 -1.119999,0 -2.053332,0.70933 -0.895999,0.672 -1.455998,1.94133 -0.522667,1.26933 -0.522667,3.024 0,1.68 0.522667,2.98666 0.522666,1.26933 1.418665,2.016 0.933333,0.70933 2.090665,0.70933 z"
         id="path33076" />
      <path
         d="m 34.944212,126.68162 q -1.493332,0 -2.613331,-0.48533 -1.082666,-0.48534 -1.829332,-1.568 -0.709332,-1.08267 -1.045332,-2.87467 -0.298666,-1.79199 -0.186666,-4.44266 l 0.485332,-12.46932 4.367997,-0.56 0.335999,-0.0373 0.03733,0.336 q -0.149333,0.26133 -0.298667,0.52266 -0.149333,0.26133 -0.186666,0.896 l -0.410667,5.152 0.186667,0.26133 -0.298666,5.82399 q -0.112,2.42667 0.149333,3.77067 0.298666,1.30666 0.858666,1.792 0.597333,0.48533 1.418665,0.48533 1.194666,0 2.127998,-0.48533 0.970666,-0.48534 1.791999,-1.12 l 0.895999,3.06133 q -1.269332,0.93333 -2.725331,1.456 -1.418665,0.48533 -3.061331,0.48533 z M 25.98422,108.9483 h 13.365322 l -0.03733,3.32267 H 25.909553 Z"
         id="path33078" />
      <path
         d="m 49.840129,126.75629 q -2.874664,0 -4.479996,-1.344 -1.567999,-1.38133 -1.567999,-3.54667 0,-1.38133 0.597333,-2.53866 0.634666,-1.19467 1.866665,-2.05333 1.231999,-0.85867 3.061331,-1.30667 1.829332,-0.48533 4.18133,-0.48533 0.298666,0 0.746666,0 0.447999,0 0.970666,0.0373 0.522666,0 0.970665,0.0747 l 0.112,2.912 q -0.373333,-0.0373 -0.895999,-0.0373 -0.522666,-0.0373 -1.082666,-0.0373 -0.522666,-0.0373 -0.895999,-0.0373 -1.493332,0 -2.538664,0.224 -1.008,0.224 -1.642666,0.63466 -0.634666,0.37334 -0.933332,0.93334 -0.298667,0.52266 -0.298667,1.15733 0,0.59733 0.186667,1.008 0.224,0.41066 0.559999,0.672 0.373333,0.224 0.858666,0.336 0.485333,0.112 1.045333,0.112 1.119999,0 1.941331,-0.336 0.858666,-0.37334 1.418666,-1.15734 0.597333,-0.784 0.858666,-1.94133 0.298666,-1.19466 0.298666,-2.8 0,-2.16533 -0.447999,-3.32266 -0.448,-1.15733 -1.306666,-1.60533 -0.858666,-0.48533 -2.165331,-0.48533 -1.194666,0 -2.277332,0.41066 -1.045332,0.37334 -2.053331,1.41867 l -2.314665,-2.53867 q 1.455999,-1.38133 3.247997,-1.97866 1.791999,-0.59733 3.583997,-0.59733 1.642665,0 3.061331,0.37333 1.418665,0.37333 2.463998,1.26933 1.082665,0.85867 1.679998,2.38933 0.634666,1.49333 0.634666,3.73333 v 10.00533 h -4.367996 v -1.86667 q -0.485333,0.63467 -1.045332,1.08267 -0.56,0.448 -1.194666,0.70933 -0.634666,0.26133 -1.343999,0.37333 -0.709333,0.14934 -1.493332,0.14934 z"
         id="path33080" />
      <path
         d="m 72.277373,126.68162 q -1.493332,0 -2.613331,-0.48533 -1.082666,-0.48534 -1.829332,-1.568 -0.709333,-1.08267 -1.045333,-2.87467 -0.298666,-1.79199 -0.186666,-4.44266 l 0.485333,-12.46932 4.367996,-0.56 0.336,-0.0373 0.03733,0.336 q -0.149333,0.26133 -0.298666,0.52266 -0.149333,0.26133 -0.186667,0.896 l -0.410666,5.152 0.186666,0.26133 -0.298666,5.82399 q -0.112,2.42667 0.149333,3.77067 0.298667,1.30666 0.858666,1.792 0.597333,0.48533 1.418666,0.48533 1.194665,0 2.127998,-0.48533 0.970666,-0.48534 1.791998,-1.12 l 0.895999,3.06133 q -1.269332,0.93333 -2.725331,1.456 -1.418665,0.48533 -3.06133,0.48533 z M 63.31738,108.9483 h 13.365322 l -0.03733,3.32267 H 63.242714 Z"
         id="path33082" />
      <path
         d="m 82.917293,126.30829 v -3.32267 h 4.255996 v -10.71465 h -4.031996 v -3.32267 h 8.287993 v 14.03732 h 3.882663 v 3.32267 z m 6.197328,-20.23465 q -1.082666,0 -1.866665,-0.74667 -0.783999,-0.74666 -0.783999,-1.792 0,-1.12 0.746666,-1.82933 0.746666,-0.70933 1.903998,-0.70933 1.045333,0 1.829332,0.74666 0.821333,0.74667 0.821333,1.792 0,1.04534 -0.821333,1.792 -0.783999,0.74667 -1.829332,0.74667 z"
         id="path33084" />
      <path
         d="m 107.74387,126.68162 q -2.31467,0 -4.21867,-1.12 -1.86666,-1.15733 -2.94933,-3.21066 -1.082662,-2.05333 -1.082662,-4.74133 0,-2.576 1.082662,-4.62933 1.08267,-2.05333 2.94933,-3.248 1.904,-1.19466 4.21867,-1.19466 2.352,0 4.21866,1.19466 1.904,1.19467 2.98667,3.248 1.11999,2.05333 1.11999,4.62933 0,2.688 -1.11999,4.74133 -1.08267,2.05333 -2.98667,3.21066 -1.86666,1.12 -4.21866,1.12 z m 0,-3.36 q 1.232,0 2.128,-0.70933 0.896,-0.74667 1.41866,-2.016 0.56,-1.30666 0.56,-2.98666 0,-1.75467 -0.56,-3.024 -0.52266,-1.26933 -1.41866,-1.94133 -0.896,-0.70933 -2.128,-0.70933 -1.12,0 -2.05333,0.70933 -0.896,0.672 -1.456,1.94133 -0.52267,1.26933 -0.52267,3.024 0,1.68 0.52267,2.98666 0.52266,1.26933 1.41866,2.016 0.93334,0.70933 2.09067,0.70933 z"
         id="path33086" />
      <path
         d="M 119.16779,126.30829 V 108.9483 h 4.21866 v 2.38933 q 0.63467,-0.82133 1.38133,-1.456 0.74667,-0.63466 1.64267,-0.97066 0.93333,-0.37333 1.97866,-0.37333 1.53067,0 2.8,0.74666 1.26933,0.70933 2.05333,2.31467 0.784,1.60533 0.784,4.21866 v 10.49066 h -4.21866 V 115.8923 q 0,-1.456 -0.29867,-2.352 -0.29866,-0.896 -0.896,-1.30667 -0.56,-0.448 -1.344,-0.448 -0.70933,0 -1.41866,0.29867 -0.672,0.26133 -1.232,0.82133 -0.56,0.56 -0.896,1.344 -0.336,0.74667 -0.336,1.71733 v 10.34133 z"
         id="path33088" />
      <path
         d="m 145.45036,126.71895 q -1.568,0 -3.024,-0.29866 -1.45599,-0.26134 -2.68799,-0.85867 -1.232,-0.63467 -2.27734,-1.60533 l 1.86667,-3.43466 0.14933,-0.29867 0.29867,0.18667 q 0.112,0.26133 0.224,0.59733 0.112,0.29866 0.56,0.70933 0.93333,0.784 2.128,1.232 1.19466,0.448 2.83733,0.448 1.04533,0 1.75466,-0.224 0.74667,-0.26133 1.12,-0.672 0.41067,-0.448 0.41067,-1.008 0,-0.448 -0.224,-0.784 -0.224,-0.336 -0.70933,-0.59733 -0.48534,-0.26133 -1.26934,-0.52267 -0.784,-0.29866 -1.86666,-0.63466 -1.904,-0.48534 -3.32267,-1.19467 -1.38133,-0.74667 -2.12799,-1.792 -0.74667,-1.04533 -0.74667,-2.42666 0,-1.456 0.82133,-2.576 0.85867,-1.12 2.38933,-1.75467 1.53067,-0.67199 3.62133,-0.67199 1.08267,0 2.05334,0.18666 0.97066,0.14934 1.82933,0.48533 0.896,0.29867 1.64266,0.82134 0.784,0.48533 1.456,1.15733 l -2.05333,2.87466 -0.26133,0.29867 -0.26134,-0.224 q -0.0373,-0.29867 -0.18666,-0.56 -0.112,-0.29867 -0.56,-0.70933 -0.74667,-0.56 -1.71733,-0.82133 -0.93334,-0.26134 -1.86667,-0.26134 -1.26933,0 -2.20266,0.41067 -0.896,0.41067 -0.896,1.26933 0,0.48533 0.41066,0.896 0.41067,0.37333 1.344,0.74667 0.97067,0.336 2.53867,0.74666 2.09066,0.56 3.39733,1.30667 1.344,0.70933 1.94133,1.71733 0.63467,1.008 0.63467,2.352 0,1.456 -0.82134,2.72533 -0.82133,1.26933 -2.42666,2.016 -1.568,0.74666 -3.92,0.74666 z"
         id="path33090" />
    </g>
  </g>
</svg>
