<?xml version="1.0" encoding="UTF-8" standalone="no"?>
<!-- Created with Inkscape (http://www.inkscape.org/) -->

<svg
   width="256"
   height="256"
   viewBox="0 0 33.866666 33.866666"
   version="1.1"
   id="svg5"
   inkscape:version="1.1.2 (0a00cf5339, 2022-02-04)"
   sodipodi:docname="labelbuddy-annotations.svg"
   xmlns:inkscape="http://www.inkscape.org/namespaces/inkscape"
   xmlns:sodipodi="http://sodipodi.sourceforge.net/DTD/sodipodi-0.dtd"
   xmlns="http://www.w3.org/2000/svg"
   xmlns:svg="http://www.w3.org/2000/svg">
  <sodipodi:namedview
     id="namedview7"
     pagecolor="#ffffff"
     bordercolor="#666666"
     borderopacity="1.0"
     inkscape:pageshadow="2"
     inkscape:pageopacity="0.0"
     inkscape:pagecheckerboard="0"
     inkscape:document-units="px"
     showgrid="false"
     units="px"
     width="256px"
     inkscape:zoom="9.0608869"
     inkscape:cx="49.222555"
     inkscape:cy="48.11891"
     inkscape:window-width="3840"
     inkscape:window-height="2107"
     inkscape:window-x="0"
     inkscape:window-y="26"
     inkscape:window-maximized="1"
     inkscape:current-layer="layer1" />
  <defs
     id="defs2">
    <rect
       x="18.310467"
       y="107.36752"
       width="230.40329"
       height="43.896591"
       id="rect15996" />
    <rect
       x="11.234787"
       y="16.9447"
       width="232.43781"
       height="56.323536"
       id="rect12976" />
  </defs>
  <g
     inkscape:label="Layer 1"
     inkscape:groupmode="layer"
     id="layer1">
    <rect
       style="fill:#8297ff;fill-opacity:1;stroke:#414141;stroke-width:0;stroke-linecap:round;stroke-linejoin:round"
       id="rect20606"
       width="29.454971"
       height="6.8103628"
       x="1.3934628"
       y="9.542223"
       transform="rotate(-10.814545)" />
    <g
       aria-label="labelbuddy"
       transform="matrix(0.25988423,-0.04964395,0.04964395,0.25988423,-0.2892334,4.8415628)"
       id="text12974"
       style="font-size:21.3333px;line-height:1.25;font-family:Inconsolata;-inkscape-font-specification:'Inconsolata, Normal';font-variant-ligatures:none;letter-spacing:0px;word-spacing:0px;white-space:pre;shape-inside:url(#rect12976)">
      <path
         d="m 12.919706,37.081283 v -1.237331 h 2.879995 V 24.13197 h -2.751996 v -1.237331 h 4.309327 v 12.949313 h 2.858662 v 1.237331 z"
         id="path21046" />
      <path
         d="m 26.40231,37.31595 q -1.663997,0 -2.559996,-0.746666 -0.895999,-0.767999 -0.895999,-1.94133 0,-0.789332 0.384,-1.407998 0.383999,-0.639999 1.045332,-1.066665 0.682665,-0.447999 1.578664,-0.682666 0.895998,-0.234666 1.898663,-0.234666 0.362667,0 0.725333,0.02133 0.383999,0 0.789332,0.04267 0.426666,0.02133 0.874665,0.08533 l 0.04267,1.173332 q -0.384,-0.064 -0.789333,-0.08533 -0.383999,-0.04267 -0.767998,-0.064 -0.384,-0.02133 -0.746666,-0.02133 -0.767999,0 -1.407998,0.128 -0.639999,0.128 -1.109331,0.384 -0.469333,0.255999 -0.725332,0.661332 -0.256,0.405332 -0.256,0.981332 0,0.447999 0.149333,0.767998 0.170667,0.298667 0.447999,0.490666 0.277333,0.170667 0.639999,0.256 0.384,0.08533 0.831999,0.08533 0.831999,0 1.471998,-0.256 0.661332,-0.277332 1.109331,-0.789332 0.469333,-0.511999 0.703999,-1.258664 0.234667,-0.746666 0.234667,-1.706664 0,-1.450665 -0.341333,-2.26133 -0.341333,-0.810665 -1.023999,-1.151998 -0.661332,-0.341333 -1.706664,-0.341333 -0.703998,0 -1.386664,0.277333 -0.682666,0.255999 -1.237331,0.810665 l -0.746666,-0.981332 q 0.682666,-0.682665 1.578664,-1.023998 0.895999,-0.341333 1.898664,-0.341333 0.959998,0 1.74933,0.234667 0.789333,0.234666 1.343998,0.789332 0.575999,0.533332 0.874666,1.450664 0.319999,0.917332 0.319999,2.303996 v 5.183992 h -1.663997 v -1.493331 q -0.277333,0.533333 -0.682666,0.874666 -0.383999,0.341332 -0.831998,0.533332 -0.448,0.170666 -0.917332,0.234666 -0.469333,0.08533 -0.895999,0.08533 z"
         id="path21048" />
      <path
         d="m 38.24225,37.31595 q -0.597332,0 -1.130665,-0.192 -0.533332,-0.170667 -0.981331,-0.511999 -0.426666,-0.341333 -0.767999,-0.810666 l -0.533333,1.279998 H 33.847591 V 22.894639 h 1.535997 0.213333 v 0.149333 q -0.128,0.128 -0.170666,0.277333 -0.02133,0.149333 -0.02133,0.511999 v 4.991992 q 0.234667,-0.383999 0.554666,-0.703999 0.32,-0.319999 0.703999,-0.554665 0.384,-0.234667 0.810666,-0.341333 0.426666,-0.128 0.831998,-0.128 0.895999,0 1.621331,0.32 0.746665,0.298666 1.279998,0.938665 0.533332,0.618665 0.810665,1.557331 0.298667,0.938665 0.298667,2.197329 0,1.301332 -0.341333,2.282663 -0.341333,0.981332 -0.938665,1.642665 -0.576,0.639999 -1.301332,0.959998 -0.725332,0.32 -1.493331,0.32 z m -0.191999,-1.365332 q 0.511999,0 0.981331,-0.191999 0.490666,-0.192 0.874666,-0.618666 0.383999,-0.447999 0.597332,-1.173332 0.234666,-0.725332 0.234666,-1.770663 0,-0.959999 -0.191999,-1.663998 -0.192,-0.725332 -0.554666,-1.194665 -0.341333,-0.469332 -0.831999,-0.682665 -0.490666,-0.234666 -1.066665,-0.234666 -0.789332,0 -1.407998,0.490665 -0.597332,0.469333 -0.938665,1.343998 -0.341333,0.853332 -0.341333,1.983997 0,0.831999 0.149334,1.514664 0.149333,0.682666 0.447999,1.173332 0.319999,0.490666 0.810665,0.767999 0.511999,0.255999 1.237332,0.255999 z"
         id="path21050" />
      <path
         d="m 49.036859,37.294616 q -1.066665,0 -1.94133,-0.319999 -0.874666,-0.341333 -1.514665,-0.981332 -0.618665,-0.639999 -0.959998,-1.578664 -0.341333,-0.959999 -0.341333,-2.175997 0,-1.237331 0.341333,-2.19733 0.362666,-0.959998 0.959998,-1.599997 0.618666,-0.661332 1.429331,-1.002665 0.831999,-0.341333 1.749331,-0.341333 0.831999,0 1.557331,0.277333 0.725332,0.277333 1.258665,0.853332 0.533332,0.554666 0.831998,1.429331 0.32,0.874665 0.32,2.06933 0,0.170666 -0.02133,0.362666 0,0.170667 -0.02133,0.341333 h -6.933322 q 0.04267,0.938665 0.319999,1.642664 0.277333,0.682666 0.725332,1.130665 0.448,0.426666 1.023999,0.639999 0.597332,0.213333 1.258665,0.213333 0.511999,0 0.959998,-0.106667 0.447999,-0.127999 0.831999,-0.362666 0.405332,-0.255999 0.725332,-0.618665 l 0.853332,0.831998 q -0.405333,0.490666 -0.938665,0.831999 -0.512,0.341333 -1.130665,0.490666 -0.618666,0.170666 -1.343998,0.170666 z m -3.221328,-6.058657 h 5.354658 q 0,-0.682665 -0.192,-1.215998 -0.170666,-0.554666 -0.511999,-0.938665 -0.319999,-0.405333 -0.789332,-0.597333 -0.447999,-0.213333 -1.023998,-0.213333 -0.512,0 -0.981332,0.170667 -0.448,0.170666 -0.831999,0.554666 -0.383999,0.362666 -0.661332,0.917332 -0.256,0.554665 -0.362666,1.322664 z"
         id="path21052" />
      <path
         d="m 55.586141,37.081283 v -1.237331 h 2.879995 V 24.13197 h -2.751995 v -1.237331 h 4.309326 v 12.949313 h 2.858662 v 1.237331 z"
         id="path21054" />
      <path
         d="m 70.242079,37.31595 q -0.597333,0 -1.130665,-0.192 -0.533333,-0.170667 -0.981332,-0.511999 -0.426666,-0.341333 -0.767999,-0.810666 l -0.533332,1.279998 H 65.847419 V 22.894639 h 1.535998 0.213333 v 0.149333 q -0.128,0.128 -0.170667,0.277333 -0.02133,0.149333 -0.02133,0.511999 v 4.991992 q 0.234666,-0.383999 0.554666,-0.703999 0.319999,-0.319999 0.703998,-0.554665 0.384,-0.234667 0.810666,-0.341333 0.426666,-0.128 0.831999,-0.128 0.895998,0 1.62133,0.32 0.746666,0.298666 1.279998,0.938665 0.533333,0.618665 0.810666,1.557331 0.298666,0.938665 0.298666,2.197329 0,1.301332 -0.341333,2.282663 -0.341333,0.981332 -0.938665,1.642665 -0.575999,0.639999 -1.301331,0.959998 -0.725333,0.32 -1.493331,0.32 z m -0.192,-1.365332 q 0.511999,0 0.981332,-0.191999 0.490666,-0.192 0.874665,-0.618666 0.383999,-0.447999 0.597332,-1.173332 0.234667,-0.725332 0.234667,-1.770663 0,-0.959999 -0.192,-1.663998 -0.192,-0.725332 -0.554666,-1.194665 -0.341333,-0.469332 -0.831998,-0.682665 -0.490666,-0.234666 -1.066665,-0.234666 -0.789333,0 -1.407998,0.490665 -0.597333,0.469333 -0.938665,1.343998 -0.341333,0.853332 -0.341333,1.983997 0,0.831999 0.149333,1.514664 0.149333,0.682666 0.447999,1.173332 0.32,0.490666 0.810666,0.767999 0.511999,0.255999 1.237331,0.255999 z"
         id="path21056" />
      <path
         d="m 79.948687,37.31595 q -0.575999,0 -1.087998,-0.170667 -0.511999,-0.170666 -0.938665,-0.511999 -0.405333,-0.362666 -0.703999,-0.895999 -0.298666,-0.533332 -0.469333,-1.279998 -0.149333,-0.746665 -0.149333,-1.68533 l 0.02133,-5.439992 h 1.493331 v 5.439992 q 0,0.917332 0.170667,1.557331 0.170666,0.639999 0.469332,1.023998 0.32,0.383999 0.725332,0.554666 0.405333,0.170666 0.853332,0.170666 0.512,0 0.981332,-0.192 0.469333,-0.213333 0.831999,-0.618665 0.383999,-0.405333 0.597332,-1.045332 0.213333,-0.639999 0.213333,-1.514664 v -5.375992 h 1.493331 v 8.234654 q 0,0.383999 0.02133,0.767999 0.04267,0.362666 0.191999,0.746665 h -1.471997 q -0.106667,-0.255999 -0.149333,-0.490666 -0.04267,-0.255999 -0.064,-0.511999 0,-0.255999 0,-0.490666 -0.234667,0.405333 -0.554666,0.725332 -0.32,0.32 -0.725332,0.554666 -0.384,0.213333 -0.831999,0.32 -0.426666,0.128 -0.917332,0.128 z"
         id="path21058" />
      <path
         d="m 90.892627,37.294616 q -0.746666,0 -1.471998,-0.319999 -0.703999,-0.32 -1.301331,-0.959999 -0.575999,-0.639999 -0.917332,-1.621331 -0.341333,-0.981331 -0.341333,-2.282663 0,-1.343997 0.362666,-2.282663 0.362666,-0.959998 0.959999,-1.557331 0.597332,-0.618665 1.322664,-0.895998 0.725333,-0.298666 1.471998,-0.298666 0.682666,0 1.215998,0.213333 0.554666,0.213333 0.959999,0.597332 0.426666,0.362666 0.661332,0.874665 v -5.866657 h 1.407998 0.213333 v 0.149333 q -0.128,0.128 -0.170667,0.277333 -0.02133,0.149333 -0.02133,0.511999 l 0.02133,11.733315 q 0,0.383999 0.02133,0.767999 0.04267,0.362666 0.191999,0.746665 h -1.514664 q -0.106666,-0.255999 -0.149333,-0.511999 -0.04267,-0.256 -0.064,-0.490666 0,-0.255999 0,-0.511999 -0.298666,0.511999 -0.725332,0.917332 -0.426666,0.383999 -0.959999,0.597332 -0.533332,0.213333 -1.173331,0.213333 z m 0.234666,-1.343998 q 0.703999,0 1.194665,-0.277333 0.490666,-0.298666 0.789332,-0.810665 0.298666,-0.533332 0.426666,-1.215998 0.149333,-0.703999 0.149333,-1.493331 0,-1.087998 -0.277333,-1.94133 -0.277333,-0.874666 -0.874665,-1.365331 -0.597332,-0.512 -1.535998,-0.512 -0.639999,0 -1.151998,0.256 -0.490666,0.234666 -0.831998,0.703999 -0.32,0.469332 -0.490666,1.130665 -0.170667,0.639999 -0.170667,1.450664 0,1.215998 0.32,2.13333 0.319999,0.917332 0.938665,1.429331 0.618666,0.511999 1.514664,0.511999 z"
         id="path21060" />
      <path
         d="m 101.55924,37.294616 q -0.74667,0 -1.472,-0.319999 -0.703999,-0.32 -1.301331,-0.959999 -0.575999,-0.639999 -0.917332,-1.621331 -0.341333,-0.981331 -0.341333,-2.282663 0,-1.343997 0.362666,-2.282663 0.362666,-0.959998 0.959999,-1.557331 0.597332,-0.618665 1.322661,-0.895998 0.72534,-0.298666 1.472,-0.298666 0.68267,0 1.216,0.213333 0.55466,0.213333 0.96,0.597332 0.42666,0.362666 0.66133,0.874665 v -5.866657 h 1.408 0.21333 v 0.149333 q -0.128,0.128 -0.17067,0.277333 -0.0213,0.149333 -0.0213,0.511999 l 0.0213,11.733315 q 0,0.383999 0.0213,0.767999 0.0427,0.362666 0.192,0.746665 h -1.51467 q -0.10666,-0.255999 -0.14933,-0.511999 -0.0427,-0.256 -0.064,-0.490666 0,-0.255999 0,-0.511999 -0.29867,0.511999 -0.72533,0.917332 -0.42667,0.383999 -0.96,0.597332 -0.53333,0.213333 -1.17333,0.213333 z m 0.23466,-1.343998 q 0.704,0 1.19467,-0.277333 0.49066,-0.298666 0.78933,-0.810665 0.29867,-0.533332 0.42667,-1.215998 0.14933,-0.703999 0.14933,-1.493331 0,-1.087998 -0.27733,-1.94133 -0.27734,-0.874666 -0.87467,-1.365331 -0.59733,-0.512 -1.536,-0.512 -0.63999,0 -1.15199,0.256 -0.49067,0.234666 -0.832003,0.703999 -0.319999,0.469332 -0.490666,1.130665 -0.170666,0.639999 -0.170666,1.450664 0,1.215998 0.319999,2.13333 0.32,0.917332 0.938666,1.429331 0.61867,0.511999 1.51466,0.511999 z"
         id="path21062" />
      <path
         d="m 109.94319,40.793277 q -0.68267,0 -1.25867,-0.213333 -0.55467,-0.213333 -0.98133,-0.618665 l 0.66133,-1.045332 0.128,-0.192 0.128,0.08533 q 0.0427,0.170666 0.14933,0.277332 0.10667,0.128 0.40534,0.32 0.192,0.064 0.40533,0.08533 0.21333,0.04267 0.448,0.04267 0.576,0 0.96,-0.277333 0.40533,-0.277333 0.704,-0.853332 0.29866,-0.575999 0.57599,-1.450665 l 1.856,-5.738657 q 0.32,-0.981332 0.61867,-1.94133 0.29866,-0.959999 0.40533,-1.941331 h 1.536 q -0.14934,0.981332 -0.46933,1.983997 -0.32,1.002665 -0.68267,2.00533 l -2.432,6.869323 q -0.512,1.429331 -1.32266,2.00533 -0.78933,0.597332 -1.83466,0.597332 z m -1.728,-13.461312 h 1.6 l 3.15732,8.127987 -0.68266,1.898664 z"
         id="path21064" />
    </g>
    <g
       id="g21153">
      <rect
         style="fill:#ffd101;fill-opacity:1;stroke:#414141;stroke-width:0;stroke-linecap:round;stroke-linejoin:round"
         id="rect20606-8"
         width="32.356655"
         height="6.8103628"
         x="4.9359827"
         y="17.072651"
         transform="rotate(11.066566)" />
      <g
         aria-label="annotations"
         transform="matrix(0.25966335,0.05078659,-0.05078659,0.25966335,3.1001859,-11.554864)"
         id="text15994"
         style="font-size:21.3333px;line-height:1.25;font-family:Inconsolata;-inkscape-font-specification:'Inconsolata, Normal';font-variant-ligatures:none;letter-spacing:0px;word-spacing:0px;white-space:pre;shape-inside:url(#rect15996)">
        <path
           d="m 22.811873,127.73782 q -1.663997,0 -2.559996,-0.74666 -0.895998,-0.768 -0.895998,-1.94133 0,-0.78933 0.383999,-1.408 0.383999,-0.64 1.045332,-1.06666 0.682665,-0.448 1.578664,-0.68267 0.895998,-0.23467 1.898663,-0.23467 0.362667,0 0.725333,0.0213 0.383999,0 0.789332,0.0427 0.426666,0.0213 0.874665,0.0853 l 0.04267,1.17333 q -0.384,-0.064 -0.789332,-0.0853 -0.384,-0.0427 -0.767999,-0.064 -0.384,-0.0213 -0.746666,-0.0213 -0.767999,0 -1.407998,0.128 -0.639998,0.128 -1.109331,0.384 -0.469333,0.256 -0.725332,0.66133 -0.256,0.40534 -0.256,0.98134 0,0.44799 0.149333,0.76799 0.170667,0.29867 0.448,0.49067 0.277332,0.17067 0.639999,0.256 0.383999,0.0853 0.831998,0.0853 0.831999,0 1.471998,-0.256 0.661332,-0.27733 1.109331,-0.78933 0.469333,-0.512 0.703999,-1.25866 0.234667,-0.74667 0.234667,-1.70667 0,-1.45066 -0.341333,-2.26133 -0.341333,-0.81066 -1.023999,-1.152 -0.661332,-0.34133 -1.706664,-0.34133 -0.703998,0 -1.386664,0.27733 -0.682666,0.256 -1.237331,0.81067 l -0.746666,-0.98133 q 0.682666,-0.68267 1.578664,-1.024 0.895999,-0.34133 1.898664,-0.34133 0.959998,0 1.749331,0.23466 0.789332,0.23467 1.343997,0.78934 0.576,0.53333 0.874666,1.45066 0.319999,0.91733 0.319999,2.304 v 5.18399 h -1.663997 v -1.49333 q -0.277333,0.53333 -0.682666,0.87466 -0.383999,0.34134 -0.831998,0.53334 -0.448,0.17066 -0.917332,0.23466 -0.469333,0.0853 -0.895999,0.0853 z"
           id="path21085" />
        <path
           d="m 30.513153,127.50316 v -9.74932 h 1.493331 v 1.728 q 0.384,-0.59733 0.895999,-1.024 0.511999,-0.448 1.130665,-0.68267 0.618665,-0.256 1.279998,-0.256 0.810665,0 1.450664,0.40534 0.639999,0.40533 1.023998,1.30133 0.384,0.896 0.384,2.36799 v 5.90933 h -1.493331 v -5.86666 q 0,-1.024 -0.234666,-1.62133 -0.234667,-0.61867 -0.639999,-0.87467 -0.405333,-0.27733 -0.917332,-0.27733 -0.490666,0 -1.002665,0.21333 -0.490666,0.21334 -0.917332,0.61867 -0.426666,0.384 -0.703999,0.93867 -0.256,0.55466 -0.256,1.25866 v 5.61066 z"
           id="path21087" />
        <path
           d="m 41.179762,127.50316 v -9.74932 h 1.493331 v 1.728 q 0.383999,-0.59733 0.895999,-1.024 0.511999,-0.448 1.130665,-0.68267 0.618665,-0.256 1.279997,-0.256 0.810666,0 1.450665,0.40534 0.639999,0.40533 1.023998,1.30133 0.384,0.896 0.384,2.36799 v 5.90933 h -1.493331 v -5.86666 q 0,-1.024 -0.234667,-1.62133 -0.234666,-0.61867 -0.639999,-0.87467 -0.405332,-0.27733 -0.917332,-0.27733 -0.490665,0 -1.002665,0.21333 -0.490665,0.21334 -0.917331,0.61867 -0.426666,0.384 -0.703999,0.93867 -0.256,0.55466 -0.256,1.25866 v 5.61066 z"
           id="path21089" />
        <path
           d="m 55.643698,127.67382 q -1.322664,0 -2.346663,-0.63999 -1.002665,-0.66134 -1.578664,-1.792 -0.575999,-1.152 -0.575999,-2.624 0,-1.49333 0.575999,-2.62399 0.575999,-1.152 1.578664,-1.792 1.023999,-0.66133 2.346663,-0.66133 1.322665,0 2.32533,0.66133 1.023998,0.64 1.599997,1.792 0.575999,1.13066 0.575999,2.62399 0,1.472 -0.575999,2.624 -0.575999,1.13066 -1.599997,1.792 -1.002665,0.63999 -2.32533,0.63999 z m 0,-1.27999 q 0.853332,0 1.493331,-0.49067 0.639999,-0.49067 1.002665,-1.344 0.384,-0.85333 0.384,-1.96266 0,-1.10933 -0.384,-1.96266 -0.362666,-0.85334 -1.002665,-1.32267 -0.639999,-0.49066 -1.493331,-0.49066 -0.831998,0 -1.493331,0.49066 -0.639999,0.46933 -1.023998,1.32267 -0.362666,0.85333 -0.362666,1.96266 0,1.10933 0.362666,1.96266 0.383999,0.85333 1.023998,1.344 0.661333,0.49067 1.493331,0.49067 z"
           id="path21091" />
        <path
           d="m 67.355639,127.65249 q -0.938665,0 -1.535998,-0.32 -0.597332,-0.32 -0.917332,-0.98133 -0.319999,-0.68267 -0.426666,-1.70666 -0.08533,-1.024 -0.04267,-2.432 l 0.255999,-6.95466 1.599998,-0.192 0.213333,-0.0213 0.02133,0.14933 q -0.106666,0.14934 -0.192,0.29867 -0.064,0.14933 -0.106666,0.512 l -0.192,2.41066 0.064,0.384 -0.149333,3.52 q -0.064,1.62133 0.08533,2.51733 0.149333,0.87466 0.533333,1.21599 0.383999,0.32 1.023998,0.32 0.703999,0 1.237331,-0.27733 0.554666,-0.27733 1.151999,-0.704 l 0.469332,1.216 q -0.725332,0.53333 -1.493331,0.78933 -0.767999,0.256 -1.599997,0.256 z m -4.885326,-9.89865 h 7.018656 v 1.25866 h -7.018656 z"
           id="path21093" />
        <path
           d="m 76.144919,127.73782 q -1.663997,0 -2.559996,-0.74666 -0.895998,-0.768 -0.895998,-1.94133 0,-0.78933 0.383999,-1.408 0.383999,-0.64 1.045332,-1.06666 0.682665,-0.448 1.578664,-0.68267 0.895998,-0.23467 1.898663,-0.23467 0.362667,0 0.725333,0.0213 0.383999,0 0.789332,0.0427 0.426666,0.0213 0.874665,0.0853 l 0.04267,1.17333 q -0.384,-0.064 -0.789332,-0.0853 -0.384,-0.0427 -0.767999,-0.064 -0.384,-0.0213 -0.746666,-0.0213 -0.767999,0 -1.407998,0.128 -0.639999,0.128 -1.109331,0.384 -0.469333,0.256 -0.725332,0.66133 -0.256,0.40534 -0.256,0.98134 0,0.44799 0.149333,0.76799 0.170667,0.29867 0.447999,0.49067 0.277333,0.17067 0.639999,0.256 0.384,0.0853 0.831999,0.0853 0.831999,0 1.471998,-0.256 0.661332,-0.27733 1.109331,-0.78933 0.469333,-0.512 0.703999,-1.25866 0.234667,-0.74667 0.234667,-1.70667 0,-1.45066 -0.341333,-2.26133 -0.341333,-0.81066 -1.023999,-1.152 -0.661332,-0.34133 -1.706664,-0.34133 -0.703998,0 -1.386664,0.27733 -0.682666,0.256 -1.237331,0.81067 l -0.746666,-0.98133 q 0.682666,-0.68267 1.578664,-1.024 0.895999,-0.34133 1.898664,-0.34133 0.959998,0 1.749331,0.23466 0.789332,0.23467 1.343997,0.78934 0.575999,0.53333 0.874666,1.45066 0.319999,0.91733 0.319999,2.304 v 5.18399 h -1.663997 v -1.49333 q -0.277333,0.53333 -0.682666,0.87466 -0.383999,0.34134 -0.831998,0.53334 -0.448,0.17066 -0.917332,0.23466 -0.469333,0.0853 -0.895999,0.0853 z"
           id="path21095" />
        <path
           d="m 88.688856,127.65249 q -0.938665,0 -1.535997,-0.32 -0.597333,-0.32 -0.917332,-0.98133 -0.32,-0.68267 -0.426666,-1.70666 -0.08533,-1.024 -0.04267,-2.432 l 0.256,-6.95466 1.599997,-0.192 0.213333,-0.0213 0.02133,0.14933 q -0.106667,0.14934 -0.192,0.29867 -0.064,0.14933 -0.106667,0.512 l -0.191999,2.41066 0.064,0.384 -0.149333,3.52 q -0.064,1.62133 0.08533,2.51733 0.149333,0.87466 0.533332,1.21599 0.384,0.32 1.023999,0.32 0.703999,0 1.237331,-0.27733 0.554666,-0.27733 1.151998,-0.704 l 0.469333,1.216 q -0.725332,0.53333 -1.493331,0.78933 -0.767999,0.256 -1.599998,0.256 z m -4.885325,-9.89865 h 7.018655 v 1.25866 h -7.018655 z"
           id="path21097" />
        <path
           d="m 95.110137,127.50316 v -1.23733 h 2.495996 v -7.27466 h -2.367997 v -1.23733 h 3.903994 v 8.51199 h 2.28266 v 1.23733 z m 3.178661,-11.79732 q -0.447999,0 -0.767999,-0.32 -0.319999,-0.32 -0.319999,-0.76799 0,-0.46934 0.298666,-0.78934 0.32,-0.32 0.789332,-0.32 0.448,0 0.767999,0.34134 0.341333,0.32 0.341333,0.768 0,0.44799 -0.341333,0.76799 -0.319999,0.32 -0.767999,0.32 z"
           id="path21099" />
        <path
           d="m 108.97674,127.67382 q -1.32266,0 -2.34666,-0.63999 -1.00267,-0.66134 -1.57866,-1.792 -0.576,-1.152 -0.576,-2.624 0,-1.49333 0.576,-2.62399 0.57599,-1.152 1.57866,-1.792 1.024,-0.66133 2.34666,-0.66133 1.32267,0 2.32533,0.66133 1.024,0.64 1.6,1.792 0.576,1.13066 0.576,2.62399 0,1.472 -0.576,2.624 -0.576,1.13066 -1.6,1.792 -1.00266,0.63999 -2.32533,0.63999 z m 0,-1.27999 q 0.85333,0 1.49333,-0.49067 0.64,-0.49067 1.00267,-1.344 0.384,-0.85333 0.384,-1.96266 0,-1.10933 -0.384,-1.96266 -0.36267,-0.85334 -1.00267,-1.32267 -0.64,-0.49066 -1.49333,-0.49066 -0.832,0 -1.49333,0.49066 -0.64,0.46933 -1.024,1.32267 -0.36266,0.85333 -0.36266,1.96266 0,1.10933 0.36266,1.96266 0.384,0.85333 1.024,1.344 0.66133,0.49067 1.49333,0.49067 z"
           id="path21101" />
        <path
           d="m 115.84603,127.50316 v -9.74932 h 1.49333 v 1.728 q 0.384,-0.59733 0.896,-1.024 0.51199,-0.448 1.13066,-0.68267 0.61867,-0.256 1.28,-0.256 0.81066,0 1.45066,0.40534 0.64,0.40533 1.024,1.30133 0.384,0.896 0.384,2.36799 v 5.90933 h -1.49333 v -5.86666 q 0,-1.024 -0.23467,-1.62133 -0.23466,-0.61867 -0.64,-0.87467 -0.40533,-0.27733 -0.91733,-0.27733 -0.49066,0 -1.00266,0.21333 -0.49067,0.21334 -0.91733,0.61867 -0.42667,0.384 -0.704,0.93867 -0.256,0.55466 -0.256,1.25866 v 5.61066 z"
           id="path21103" />
        <path
           d="m 130.3313,127.71649 q -0.81067,0 -1.55733,-0.17067 -0.72534,-0.17066 -1.38667,-0.51199 -0.64,-0.34134 -1.19466,-0.85334 l 0.85333,-1.45066 0.128,-0.192 0.128,0.0853 q 0.0427,0.17067 0.0853,0.36267 0.064,0.17067 0.29867,0.42666 0.448,0.448 1.06666,0.74667 0.64,0.27733 1.62133,0.27733 0.78934,0 1.32267,-0.192 0.55466,-0.192 0.85333,-0.53333 0.29867,-0.36267 0.29867,-0.832 0,-0.32 -0.128,-0.55466 -0.128,-0.256 -0.42667,-0.46934 -0.27733,-0.21333 -0.74666,-0.42666 -0.46934,-0.21333 -1.152,-0.42667 -1.10933,-0.32 -1.94133,-0.74666 -0.832,-0.42667 -1.28,-0.98134 -0.448,-0.57599 -0.448,-1.30133 0,-0.74666 0.40533,-1.27999 0.40533,-0.55467 1.19467,-0.85334 0.81066,-0.32 1.98399,-0.32 0.68267,0 1.23734,0.10667 0.55466,0.0853 1.02399,0.27733 0.46934,0.192 0.85334,0.49067 0.40533,0.27733 0.76799,0.66133 l -0.87466,1.06667 -0.14933,0.17066 -0.10667,-0.10666 q -0.0213,-0.17067 -0.10667,-0.32 -0.064,-0.17067 -0.29866,-0.40534 -0.49067,-0.384 -1.10933,-0.57599 -0.61867,-0.21334 -1.19467,-0.21334 -0.85333,0 -1.472,0.29867 -0.61866,0.29866 -0.61866,0.91733 0,0.32 0.21333,0.64 0.23467,0.29867 0.832,0.61866 0.59733,0.29867 1.70666,0.61867 1.216,0.384 1.94133,0.78933 0.74667,0.384 1.06667,0.896 0.34133,0.512 0.34133,1.216 0,0.81066 -0.448,1.51466 -0.42666,0.704 -1.32266,1.13067 -0.896,0.40533 -2.26133,0.40533 z"
           id="path21105" />
      </g>
    </g>
  </g>
</svg>
